# xmcd
#
# Track frame offsets: 
#        150
#        15362
#        32060
#        42872
#        71267
#        95635
#        115417
#        133237
#        147685
#        173867
#        191442
#
# Disc length: 2873 seconds
#
# Revision: 3
# Processed by: cddbd v1.5.1PL0 Copyright (c) Steve Scherf et al.
# Submitted via: ExactAudioCopy v0.95a5
#
DISCID=9a0b370b
DTITLE=Jeans, Wes - Hands On
DYEAR=2000
DGENRE=Blues
TTITLE0=Tell Me
TTITLE1=Ridin' In The Moonlight
TTITLE2=Now You Look At Me
TTITLE3=Use What You Got
TTITLE4=I'm A Good Man
TTITLE5=Don't Be Hip
TTITLE6=Hands On
TTITLE7=Too Late
TTITLE8=Drownin' On Dry Land
TTITLE9=Victim Of The Game
TTITLE10=Status
EXTD=more info\nMillenniumMusicProjectFormat, syntax as follows:\nTitl
EXTD=e{Subtitle}[info](Lyricist;Composer;Date,Artist,Location)[info]\n
EXTD=corrections to: windking3@yahoo.com
EXTT0=
EXTT1=
EXTT2=
EXTT3=
EXTT4=
EXTT5=
EXTT6=
EXTT7=
EXTT8=
EXTT9=
EXTT10=
PLAYORDER=
